<?xml version="1.0" encoding="utf-8"?>
<!-- Generator: Adobe Illustrator 24.1.2, SVG Export Plug-In . SVG Version: 6.00 Build 0)  -->
<svg version="1.1" id="Lag_1" xmlns="http://www.w3.org/2000/svg" xmlns:xlink="http://www.w3.org/1999/xlink" x="0px" y="0px"
	 viewBox="0 0 15 15" style="enable-background:new 0 0 15 15;" xml:space="preserve">
<style type="text/css">
	.st0{fill:#444444;}
</style>
<path class="st0" d="M3.1,4v7.3c0,0.4,0.3,0.7,0.7,0.7h7.3c0.4,0,0.7-0.3,0.7-0.7V8.6c0-0.2,0.1-0.4,0.2-0.5l1-1v5.5
	c0,0.4-0.3,0.7-0.7,0.7H2.5c-0.4,0-0.7-0.3-0.7-0.7V2.8c0-0.4,0.3-0.7,0.7-0.7H8l-1,1C6.9,3.3,6.7,3.4,6.5,3.4H3.8
	C3.4,3.4,3.1,3.7,3.1,4z M9.7,3.4l2,2c0.1,0.1,0.1,0.3,0,0.5l-4.8,4.8c-0.1,0.1-0.1,0.1-0.2,0.1h-2c-0.2,0-0.3-0.1-0.3-0.3v-2
	c0-0.1,0-0.2,0.1-0.2l4.8-4.8C9.4,3.3,9.6,3.3,9.7,3.4z M10.6,2l0.9-0.9c0.2-0.2,0.4-0.2,0.6,0L14,3.1c0.2,0.2,0.2,0.4,0,0.6
	l-0.9,0.9c-0.2,0.2-0.4,0.2-0.6,0l-1.9-1.9C10.5,2.4,10.5,2.2,10.6,2z"/>
</svg>
