<svg id="Lag_1" data-name="Lag 1" xmlns="http://www.w3.org/2000/svg" viewBox="0 0 770 979.9"><defs><style>.cls-1{fill:#ea504e;}</style></defs><path class="cls-1" d="M490.67,14.67c-212.3,0-385,172.7-385,385,0,204.9,345,568.8,359.7,584.1a34.71,34.71,0,0,0,25.3,10.8h.8a34.41,34.41,0,0,0,25.6-12l119.5-136.8c158.6-194.3,239.1-344.5,239.1-446.1C875.67,187.37,703,14.67,490.67,14.67Zm0,506.39A143.33,143.33,0,1,1,634,377.73,143.34,143.34,0,0,1,490.67,521.06Z" transform="translate(-105.67 -14.67)"/></svg>