<svg xmlns="http://www.w3.org/2000/svg" viewBox="0 0 518.52 138.11"><defs><style>.cls-1{fill:#fff;}</style></defs><g id="Lag_2" data-name="Lag 2"><g id="Lag_1-2" data-name="Lag 1"><path class="cls-1" d="M96,0h17.79a5.52,5.52,0,0,1,5.41,5.57v97.12a5.52,5.52,0,0,1-5.41,5.57H98.2a5.52,5.52,0,0,1-5.41-5.57V43.92L66.19,87.69a5.48,5.48,0,0,1-4.79,2.63H57.84a5.25,5.25,0,0,1-4.64-2.63L26.6,43.92v58.77A5.55,5.55,0,0,1,21,108.26H5.57A5.55,5.55,0,0,1,0,102.69V5.57A5.55,5.55,0,0,1,5.57,0H23.2a8.36,8.36,0,0,1,7.11,4l29.23,48.1L88.93,4A8.36,8.36,0,0,1,96,0Z"/><path class="cls-1" d="M196.29,29.85h15.47a5.54,5.54,0,0,1,5.56,5.57v67.27a5.54,5.54,0,0,1-5.56,5.57H196.29a4.16,4.16,0,0,1-4.17-4.18v-3.55c-4.64,5.72-11.6,9.58-22.12,9.58-24.43,0-37.58-20.56-37.58-41S145.57,28,170,28c10.52,0,17.48,3.87,22.12,9.59V34A4.15,4.15,0,0,1,196.29,29.85Zm-4.95,39.28c0-10.51-7.42-16.85-16.85-16.85-10.37,0-16.71,7.11-16.71,16.85s6.34,16.71,16.71,16.71C183.92,85.84,191.34,79.5,191.34,69.13Z"/><path class="cls-1" d="M319.12,69.13c0,20.42-13.15,41-37.59,41-10.51,0-17.47-3.86-22.11-9.58V132.7a5.52,5.52,0,0,1-5.57,5.41H239.78a5.49,5.49,0,0,1-5.42-5.41V35.42a5.52,5.52,0,0,1,5.42-5.57h15.46A4.16,4.16,0,0,1,259.42,34v3.56C264.06,31.86,271,28,281.53,28,306,28,319.12,48.56,319.12,69.13Zm-25.37,0c0-9.74-6.34-16.85-16.7-16.85-9.44,0-16.86,6.34-16.86,16.85s7.42,16.71,16.86,16.71C287.41,85.84,293.75,78.72,293.75,69.13Z"/><path class="cls-1" d="M338.32,73.62a6.17,6.17,0,0,1-6.19-6v-11a6.07,6.07,0,0,1,6.19-6h38a6.07,6.07,0,0,1,6.19,6v11a6.17,6.17,0,0,1-6.19,6Zm0-21.81a4.83,4.83,0,0,0-4.8,4.8v11a4.69,4.69,0,0,0,4.8,4.64h38a4.69,4.69,0,0,0,4.8-4.64v-11a4.83,4.83,0,0,0-4.8-4.8Z"/><path class="cls-1" d="M406.23,108.26a6.07,6.07,0,0,1-6-6.19V6a6,6,0,0,1,6-6h15.31a6.18,6.18,0,0,1,6.19,6v96a6.21,6.21,0,0,1-6.19,6.19Zm0-106.87A4.79,4.79,0,0,0,401.44,6v96a4.82,4.82,0,0,0,4.79,4.8h15.31a4.83,4.83,0,0,0,4.8-4.8V6a4.8,4.8,0,0,0-4.8-4.64Z"/><path class="cls-1" d="M472,108.26a6.17,6.17,0,0,1-6-6.19V26H447.07a6.18,6.18,0,0,1-6.19-6V6a6.18,6.18,0,0,1,6.19-6h65.26a6.18,6.18,0,0,1,6.19,6V20a6.18,6.18,0,0,1-6.19,6H493.47v76.09a6.21,6.21,0,0,1-6.19,6.19ZM447.07,1.39A4.79,4.79,0,0,0,442.28,6V20a4.68,4.68,0,0,0,4.79,4.64h20.26v77.48a4.79,4.79,0,0,0,4.64,4.8h15.31a4.82,4.82,0,0,0,4.79-4.8V24.59h20.26a4.69,4.69,0,0,0,4.8-4.64V6a4.8,4.8,0,0,0-4.8-4.64Z"/></g></g></svg>