<?xml version="1.0" encoding="utf-8"?>
<!-- Generator: Adobe Illustrator 24.1.2, SVG Export Plug-In . SVG Version: 6.00 Build 0)  -->
<svg version="1.1" id="Lag_1" xmlns="http://www.w3.org/2000/svg" xmlns:xlink="http://www.w3.org/1999/xlink" x="0px" y="0px"
	 viewBox="0 0 1000 1000" style="enable-background:new 0 0 1000 1000;" xml:space="preserve">
<style type="text/css">
	.st0{fill:#262626;}
</style>
<path class="st0" d="M490.7,14.7c-212.3,0-385,172.7-385,385c0,204.9,345,568.8,359.7,584.1c6.6,7,15.8,10.8,25.3,10.8h0.8
	c9.8,0,19.1-4.6,25.6-12l119.5-136.8c158.6-194.3,239.1-344.5,239.1-446.1C875.7,187.4,703,14.7,490.7,14.7z M490.7,591.4
	c-113.3,0-213.8-97.8-213.8-213.8c0-124.9,89.8-213.8,213.8-213.8c122.2,0,213.8,91.6,213.8,213.8
	C704.4,500,612.9,591.4,490.7,591.4z"/>
<circle class="st0" cx="490.7" cy="377.7" r="131.1"/>
</svg>
