<?xml version="1.0" encoding="utf-8"?>
<!-- Generator: Adobe Illustrator 24.1.2, SVG Export Plug-In . SVG Version: 6.00 Build 0)  -->
<svg version="1.1" id="Lag_1" xmlns="http://www.w3.org/2000/svg" xmlns:xlink="http://www.w3.org/1999/xlink" x="0px" y="0px"
	 viewBox="0 0 770 979.9" style="enable-background:new 0 0 770 979.9;" xml:space="preserve">
<style type="text/css">
	.st0{fill:#262626;}
</style>
<path class="st0" d="M385,0C172.7,0,0,172.7,0,385c0,204.9,345,568.8,359.7,584.1c6.6,6.9,15.7,10.8,25.3,10.8h0.8
	c9.9-0.1,19.2-4.5,25.6-12l119.5-136.8C689.5,636.8,770,486.6,770,385C770,172.7,597.3,0,385,0z M385,506.4
	c-79.2,0-143.3-64.2-143.3-143.3S305.8,219.7,385,219.7c79.2,0,143.3,64.2,143.3,143.3v0C528.3,442.2,464.2,506.4,385,506.4z"/>
</svg>
