<?xml version="1.0" encoding="iso-8859-1"?>
<!-- Generator: Adobe Illustrator 19.0.0, SVG Export Plug-In . SVG Version: 6.00 Build 0)  -->
<svg version="1.1" id="Capa_1" xmlns="http://www.w3.org/2000/svg" xmlns:xlink="http://www.w3.org/1999/xlink" x="0px" y="0px"
	 viewBox="0 0 221.023 221.023" style="enable-background:new 0 0 221.023 221.023;" xml:space="preserve">
<g>
	<path d="M110.513,0C58.884,0,16.88,42.003,16.88,93.632c0,29.405,25.995,64.394,41.49,82.633
		c9.865,11.611,40.62,44.759,52.143,44.759c13.932,0,51.893-44.317,52.271-44.765c15.446-18.218,41.359-53.178,41.359-82.627
		C204.144,42.003,162.141,0,110.513,0z M169.718,92.941c0,32.447-26.399,58.846-58.848,58.846
		c-32.447,0-58.846-26.398-58.846-58.846c0-32.448,26.398-58.848,58.846-58.848C143.318,34.094,169.718,60.493,169.718,92.941z"/>
	<path d="M144.811,81.789l-23.18,0.003c-0.105-0.021-0.3-0.161-0.336-0.214l-7.178-22.089c-0.911-2.806-2.989-3.023-3.605-3.023
		c-0.615,0-2.693,0.218-3.604,3.023l-7.161,21.907c-0.052,0.095-0.247,0.115-0.306,0.115H76.214c-2.95,0-3.8,2.048-3.99,2.633
		c-0.189,0.585-0.625,2.698,1.762,4.433l18.754,13.656c0.074,0.08,0.148,0.326,0.147,0.388l-7.178,22.099
		c-0.608,1.87-0.121,3.114,0.394,3.823c1.157,1.592,3.436,1.879,5.44,0.422l18.749-13.626c0.02-0.009,0.101-0.034,0.22-0.034
		c0.116,0,0.203,0.025,0.179,0.009l18.791,13.652c0.89,0.646,1.791,0.974,2.677,0.974c1.112,0,2.119-0.508,2.763-1.394
		c0.516-0.709,1.002-1.948,0.394-3.818l-7.165-22.045c-0.013-0.107,0.062-0.336,0.099-0.385l18.792-13.653
		c2.385-1.734,1.95-3.778,1.76-4.363S147.76,81.789,144.811,81.789z"/>
</g>
<g>
</g>
<g>
</g>
<g>
</g>
<g>
</g>
<g>
</g>
<g>
</g>
<g>
</g>
<g>
</g>
<g>
</g>
<g>
</g>
<g>
</g>
<g>
</g>
<g>
</g>
<g>
</g>
<g>
</g>
</svg>
