<?xml version="1.0" encoding="utf-8"?>
<!-- Generator: Adobe Illustrator 24.1.2, SVG Export Plug-In . SVG Version: 6.00 Build 0)  -->
<svg version="1.1" id="Lag_1" xmlns="http://www.w3.org/2000/svg" xmlns:xlink="http://www.w3.org/1999/xlink" x="0px" y="0px"
	 viewBox="0 0 15 15" style="enable-background:new 0 0 15 15;" xml:space="preserve">
<style type="text/css">
	.st0{fill:#444444;}
</style>
<path class="st0" d="M11,11.7c-2.6,2.6-7.1,2.3-9.3-1c-1.3-1.9-1.3-4.5,0-6.5C3.9,1,8.3,0.6,11,3.3c1.1,1.1,1.8,2.6,1.8,4.2h-1.9
	c0-2.5-1.6-4.1-4.1-4.1c-2.4,0-4.1,2-4.1,4.1c0,2.1,1.8,4.1,4.1,4.1c1.2,0,2.2-0.4,3.1-1.3L11,11.7z M9.2,7.5h5.1
	c0.2,0,0.3,0.2,0.1,0.3l-2.5,2.5c-0.1,0.1-0.2,0.1-0.3,0L9.1,7.8C9,7.7,9,7.5,9.2,7.5z"/>
</svg>
